<?xml version="1.0" encoding="UTF-8"?>
<svg version="1.1" xmlns="http://www.w3.org/2000/svg" width="500" height="500">
<path d="M0 0 C2.40622913 -0.00071986 4.81245286 -0.00287132 7.21868062 -0.00549722 C15.66018645 -0.01469055 24.10167671 -0.01883931 32.54318738 -0.01804566 C40.33839165 -0.01744498 48.13352672 -0.02801074 55.9287135 -0.04378933 C62.68781449 -0.05696991 69.44689312 -0.06222527 76.20600682 -0.06159025 C80.2138308 -0.06133854 84.2215929 -0.06400539 88.22940373 -0.0747683 C156.02300292 -0.24376076 156.02300292 -0.24376076 178.85153699 22.35085082 C191.98184618 36.27284042 198.60418768 54.64053107 198.64822888 73.6522119 C198.65268557 74.73349992 198.65268557 74.73349992 198.65723228 75.83663213 C198.66585458 78.23510116 198.66742204 80.6335199 198.6689198 83.03200316 C198.67355277 84.75912622 198.67857807 86.48624826 198.68396497 88.21336913 C198.69704972 92.89576454 198.70352691 97.57814563 198.70797563 102.26055646 C198.71091429 105.19298627 198.71502069 108.12541224 198.7194798 111.05784011 C198.7331479 120.25276248 198.74281644 129.44767599 198.74668169 138.64260781 C198.75115299 149.21843875 198.76866056 159.79413985 198.79768229 170.36993134 C198.81938968 178.56814985 198.82939087 186.76633208 198.83072281 194.96457899 C198.83176489 199.84941312 198.83754371 204.73412508 198.85554242 209.61892867 C198.87217921 214.22369096 198.87410401 218.82824134 198.86540341 223.43302321 C198.86464115 225.10940411 198.86886651 226.78579715 198.87886167 228.46214843 C199.00825423 251.54503857 195.00766006 272.35032322 178.94528699 289.97975707 C178.14091199 290.70163207 177.33653699 291.42350707 176.50778699 292.16725707 C175.57966199 293.09538207 174.65153699 294.02350707 173.69528699 294.97975707 C156.83670527 309.28176266 134.81293296 311.47685851 113.68649793 311.44191527 C111.92893247 311.44627219 110.17136891 311.45145857 108.41380811 311.45740294 C103.67596256 311.47070031 98.93819724 311.47138191 94.20033669 311.46883965 C90.22724051 311.46776339 86.25416014 311.47267003 82.28106737 311.47744507 C72.89715569 311.48850871 63.51328405 311.48899572 54.12936902 311.4829309 C44.49035521 311.47689639 34.85148756 311.48919613 25.21249866 311.51050097 C16.89950372 311.52819061 8.58655498 311.53410669 0.27354193 311.53086323 C-4.67490869 311.52906158 -9.62325507 311.53157339 -14.57168841 311.54557776 C-19.23071349 311.55827169 -23.88951298 311.55610426 -28.54853511 311.54316688 C-30.24426677 311.5408263 -31.9400149 311.54344357 -33.63572764 311.55179 C-57.93880826 311.66265014 -80.87758025 306.76639227 -99.17190051 289.64772582 C-112.57030235 275.32451847 -117.57671015 255.60373033 -117.63938403 236.44142699 C-117.64306072 235.70675767 -117.64673741 234.97208835 -117.65052551 234.21515632 C-117.66145726 231.77600547 -117.66538814 229.33689737 -117.66921496 226.89772582 C-117.67548764 225.1392762 -117.68213514 223.38082788 -117.68912768 221.62238097 C-117.71007748 215.86651556 -117.72052261 210.11065017 -117.73049426 204.35475707 C-117.73454542 202.36527533 -117.73866245 200.37579372 -117.74284434 198.38631225 C-117.76187726 189.03495454 -117.77611141 179.68360462 -117.78445631 170.33223128 C-117.79421726 159.57468213 -117.82051499 148.81733935 -117.86095721 138.05986285 C-117.89122105 129.72066529 -117.90593494 121.38152655 -117.90923733 113.04227519 C-117.91157633 108.07304931 -117.92038591 103.10404438 -117.9456985 98.13487792 C-117.96916439 93.4529101 -117.97313893 88.77130583 -117.96293712 84.0892942 C-117.96244609 82.38345982 -117.96863644 80.67760639 -117.98249316 78.97182822 C-118.08989533 64.95116422 -116.50690722 51.37121971 -109.74221301 38.79225707 C-109.39932239 38.1336267 -109.05643176 37.47499633 -108.70315051 36.79640746 C-99.91489243 20.43669619 -86.51607326 10.04917166 -69.03908801 4.19850707 C-47.18568807 -2.1553449 -22.56472643 0.0038069 0 0 Z " fill="#0E2335" transform="translate(209.49221301078796,94.83274292945862)"/>
<path d="M0 0 C8.35965767 0.5971184 15.46609562 8.00941127 20.6875 14 C37.40165663 35.74637583 39.63538023 61.23815649 36.17333984 87.8449707 C32.65290245 110.69923107 23.24172723 134.89824221 5 150 C-11.20035544 161.74426745 -27.66522148 167.60094604 -47.8125 167.4375 C-48.47397034 167.43379395 -49.13544067 167.43008789 -49.81695557 167.42626953 C-70.15110851 167.26402405 -88.99281037 161.23977653 -104 147 C-110 140.84274194 -110 140.84274194 -110 138 C-106.09964486 139.15956504 -102.53194915 140.68047088 -98.875 142.4375 C-82.55622489 149.78203527 -62.68096171 150.83486652 -45.5234375 145.3984375 C-28.4603955 138.62618802 -10.90340018 129.5054416 -3 112 C2.02091797 98.00950993 2.89032286 82.70577655 4 68 C4.08362793 66.92041016 4.16725586 65.84082031 4.25341797 64.72851562 C5.08935726 52.39599786 4.67867917 43.37405654 -2.34765625 32.9609375 C-4 30 -4 30 -3.74609375 27.1015625 C-3.49988281 26.40804687 -3.25367188 25.71453125 -3 25 C-0.8125 24.6875 -0.8125 24.6875 2 25 C4.5625 27.1875 4.5625 27.1875 7 30 C7.680625 30.763125 8.36125 31.52625 9.0625 32.3125 C15.30968635 40.97795203 17.21426048 49.99191394 17.625 60.5 C17.66367187 61.32242188 17.70234375 62.14484375 17.7421875 62.9921875 C17.83531692 64.9944701 17.91868985 66.99720262 18 69 C18.33 69 18.66 69 19 69 C19.08807085 64.70846555 19.14074921 60.41716776 19.1875 56.125 C19.21263672 54.92101562 19.23777344 53.71703125 19.26367188 52.4765625 C19.40405063 35.25676874 12.40872746 23.25790957 1.0390625 10.7890625 C-1.20909833 7.71399194 -1.88260734 5.78858118 -2 2 C-1.34 1.34 -0.68 0.68 0 0 Z " fill="#0092A9" transform="translate(297,129)"/>
<path d="M0 0 C5.3447433 2.50760889 8.78930916 5.26220251 12.16015625 10.09375 C12.59585938 9.70703125 13.0315625 9.3203125 13.48046875 8.921875 C20.84109646 2.48530877 26.33409285 -1.31127722 36.30859375 -1.1796875 C43.25805037 -0.51330125 47.58416082 2.97851528 51.93359375 8.21484375 C56.21797401 14.77785937 56.15743394 22.13019998 54.6484375 29.640625 C49.16531932 46.00973879 30.80877092 60.14959223 17.50390625 70.15234375 C13.98017641 71.56770857 11.80016953 71.07827945 8.16015625 70.09375 C5.75241263 68.45157534 3.78130477 66.91761147 1.66015625 64.96875 C1.06775146 64.44104004 0.47534668 63.91333008 -0.13500977 63.36962891 C-2.05934657 61.63397233 -3.95343697 59.87053163 -5.83984375 58.09375 C-6.49710449 57.475 -7.15436523 56.85625 -7.83154297 56.21875 C-29.37872021 35.72662333 -29.37872021 35.72662333 -30.27734375 21.28125 C-30.12592433 15.42933473 -28.25095195 10.82371149 -24.83984375 6.09375 C-17.54403991 -0.78355649 -9.87269013 -3.15056961 0 0 Z " fill="#34C5BC" transform="translate(235.83984375,183.90625)"/>
<path d="M0 0 C-2.55023805 1.27511902 -3.2235056 0.79227354 -5.9375 0.0625 C-22.14566372 -3.34356339 -37.95308659 -1.16376596 -52.3046875 7.18359375 C-66.4623948 16.72465736 -75.33767805 30.31849801 -79 47 C-79.98497309 65.9417902 -76.74598006 81.84923356 -64.10546875 96.6953125 C-55.0652816 106.59087914 -44.414594 112.23626044 -32 117 C-32 117.33 -32 117.66 -32 118 C-49.06062678 118.74296278 -63.85136426 114.16806205 -77 103.125 C-89.47225247 91.09818512 -95.74312281 75.17924042 -96.34350586 58.06518555 C-96.61611067 40.18949516 -89.90722738 24.42482216 -77.578125 11.3828125 C-57.45503834 -7.2157979 -24.25144158 -16.5619601 0 0 Z " fill="#55CAAC" transform="translate(265,154)"/>
<path d="M0 0 C1.98 0 3.96 0 6 0 C6.75276393 1.47776199 7.50202007 2.9573108 8.25 4.4375 C8.66765625 5.26121094 9.0853125 6.08492188 9.515625 6.93359375 C11.4406391 10.91026762 13.20563933 14.9626885 15 19 C17.64 12.73 20.28 6.46 23 0 C24.98 0 26.96 0 29 0 C29.91987611 10.36503256 30.1132812 20.60330359 30 31 C28.35 30.67 26.7 30.34 25 30 C24.505 20.1 24.505 20.1 24 10 C21.36 16.93 18.72 23.86 16 31 C15.01 31 14.02 31 13 31 C10.36 24.07 7.72 17.14 5 10 C4.67 16.6 4.34 23.2 4 30 C2.35 30.33 0.7 30.66 -1 31 C-1.12288464 20.6094206 -0.83360594 10.36053092 0 0 Z " fill="#25B5B8" transform="translate(140,325)"/>
<path d="M0 0 C2.475 0.495 2.475 0.495 5 1 C5 11.56 5 22.12 5 33 C3.68 33 2.36 33 1 33 C1 32.01 1 31.02 1 30 C0.319375 30.515625 -0.36125 31.03125 -1.0625 31.5625 C-4.92635729 33.45332378 -6.90081728 33.19248952 -11 32 C-13.79469595 29.77857502 -14.81629515 28.15336342 -15.37890625 24.62109375 C-15.58036052 20.26058349 -15.43862435 17.71641978 -13.125 13.9375 C-9.45513491 10.59144653 -6.89415859 10.8220306 -2 11 C-1.67 11.33 -1.34 11.66 -1 12 C-0.67 8.04 -0.34 4.08 0 0 Z " fill="#25B1B3" transform="translate(211,323)"/>
<path d="M0 0 C1.0684314 -0.00137466 2.13686279 -0.00274933 3.2376709 -0.00416565 C4.3942923 -0.00057037 5.5509137 0.0030249 6.74258423 0.00672913 C8.5873233 0.00651009 8.5873233 0.00651009 10.46932983 0.00628662 C13.82839585 0.0068625 17.18739986 0.01186599 20.54645491 0.01886058 C24.06183151 0.02512635 27.57720901 0.02570046 31.09259033 0.02688599 C37.74351709 0.02998981 44.39442735 0.03819038 51.04534686 0.04823548 C58.61970477 0.05942611 66.19406348 0.06491449 73.76842761 0.06993091 C89.34396983 0.08037381 104.9194956 0.09795484 120.49502563 0.12025452 C120.49502563 1.11025452 120.49502563 2.10025452 120.49502563 3.12025452 C119.44710846 3.11803391 118.39919128 3.11581329 117.31951904 3.11352539 C107.46032665 3.09328368 97.60113844 3.07827739 87.74193001 3.06844234 C82.67280336 3.06321614 77.60369344 3.05612323 72.53457642 3.04481506 C67.64573883 3.03397689 62.75691737 3.02797569 57.8680687 3.02537727 C55.99969097 3.02352471 54.13131416 3.01990731 52.26294327 3.01452446 C49.65294717 3.00730171 47.04301834 3.0062641 44.43301392 3.00672913 C43.65474243 3.00313385 42.87647095 2.99953857 42.07461548 2.99583435 C38.1564985 2.92341265 38.1564985 2.92341265 34.49502563 4.12025452 C33.83502563 3.79025452 33.17502563 3.46025452 32.49502563 3.12025452 C29.6894647 3.21028805 26.91759009 3.35560493 24.12002563 3.55775452 C22.59144789 3.66162599 21.06280349 3.76452207 19.53408813 3.86634827 C18.51629272 3.93873718 18.51629272 3.93873718 17.47793579 4.0125885 C14.06274587 4.19802297 10.80966275 4.07474774 7.43252563 3.62025452 C-1.75098327 2.29322516 -1.75098327 2.29322516 -10.50497437 4.12025452 C-10.83497437 3.13025452 -11.16497437 2.14025452 -11.50497437 1.12025452 C-7.62039447 0.39994666 -3.94896171 -0.00394108 0 0 Z " fill="#0F1B27" transform="translate(200.50497436523438,94.87974548339844)"/>
<path d="M0 0 C0.75925781 -0.04898437 1.51851563 -0.09796875 2.30078125 -0.1484375 C6.06189208 0.6764215 7.42892059 2.30412448 9.6875 5.375 C10.27149822 8.3445315 10.16407628 11.17606929 10 14.1875 C9.97744141 14.97576172 9.95488281 15.76402344 9.93164062 16.57617188 C9.87304161 18.50993929 9.78336827 20.44272167 9.6875 22.375 C8.77226562 22.19582031 7.85703125 22.01664062 6.9140625 21.83203125 C3.61225761 21.18755421 3.61225761 21.18755421 0.0625 22.0625 C-3.3125 22.375 -3.3125 22.375 -5.8125 20.875 C-7.3125 18.375 -7.3125 18.375 -7.3125 14.8125 C-6.3125 11.375 -6.3125 11.375 -4.6875 9.4375 C-1.48212495 8.00351642 1.21977365 8.17493886 4.6875 8.375 C4.3575 7.385 4.0275 6.395 3.6875 5.375 C0.3875 5.375 -2.9125 5.375 -6.3125 5.375 C-6.3125 4.055 -6.3125 2.735 -6.3125 1.375 C-4.04001762 0.23875881 -2.52947236 0.11053157 0 0 Z " fill="#26B3B6" transform="translate(320.3125,333.625)"/>
<path d="M0 0 C3 2.625 3 2.625 5 6 C5 7.98 5 9.96 5 12 C0.38 12 -4.24 12 -9 12 C-8.34 13.32 -7.68 14.64 -7 16 C-3.23593762 16.83645831 0.14364222 17 4 17 C3.6875 18.9375 3.6875 18.9375 3 21 C-0.65288193 22.21762731 -3.15754136 22.39075851 -7 22 C-9.97551795 20.22396702 -12.42755188 18.14489623 -14 15 C-14.50866466 8.89602404 -14.05703618 5.89230834 -10 1 C-6.75558709 -0.62220646 -3.49459297 -0.70159132 0 0 Z " fill="#26B3B5" transform="translate(361,334)"/>
<path d="M0 0 C0.33 0 0.66 0 1 0 C1.79052187 4.87968961 2.12895584 9.52666261 2.14044189 14.48495483 C2.14489858 15.56624285 2.14489858 15.56624285 2.1494453 16.66937506 C2.15806759 19.06784409 2.15963505 21.46626283 2.16113281 23.86474609 C2.16576578 25.59186915 2.17079108 27.31899119 2.17617798 29.04611206 C2.18926273 33.72850747 2.19573992 38.41088856 2.20018864 43.09329939 C2.2031273 46.0257292 2.2072337 48.95815517 2.21169281 51.89058304 C2.22536091 61.08550541 2.23502945 70.28041892 2.2388947 79.47535074 C2.243366 90.05118168 2.26087357 100.62688278 2.2898953 111.20267427 C2.31160269 119.40089278 2.32160388 127.59907501 2.32293582 135.79732192 C2.3239779 140.68215604 2.32975673 145.56686801 2.34775543 150.4516716 C2.36439222 155.05643389 2.36631702 159.66098427 2.35761642 164.26576614 C2.35685417 165.94214704 2.36107952 167.61854008 2.37107468 169.29489136 C2.44913285 183.2200213 1.5108308 197.32032656 -3.9375 210.3125 C-4.42089844 211.50488281 -4.90429688 212.69726562 -5.40234375 213.92578125 C-6.95583833 216.91502387 -8.48068646 218.79628082 -11 221 C-10.57316286 217.69201213 -9.59146609 214.98962192 -8.1875 212 C-0.80939787 195.7681753 0.30607589 179.39171889 0.22705078 161.88720703 C0.2264853 160.11176561 0.22680589 158.33632372 0.22793579 156.56088257 C0.22850497 151.78496248 0.21682176 147.00914473 0.20278788 142.23324823 C0.19020736 137.22580656 0.18910428 132.21836202 0.18673706 127.21090698 C0.18054367 117.74820436 0.16416208 108.28554846 0.14403808 98.82286632 C0.12161212 88.04161671 0.11066887 77.26036477 0.10064721 66.4790976 C0.07979376 44.31937242 0.04465979 22.15968916 0 0 Z " fill="#02101C" transform="translate(406,154)"/>
<path d="M0 0 C2.9375 2.0625 2.9375 2.0625 5 5 C5.3125 8.8125 5.3125 8.8125 5 12 C0.71 12 -3.58 12 -8 12 C-7.01 13.65 -6.02 15.3 -5 17 C-2.72668201 17.60169446 -2.72668201 17.60169446 -0.3125 17.3125 C0.49574219 17.26738281 1.30398437 17.22226562 2.13671875 17.17578125 C2.75160156 17.11777344 3.36648437 17.05976563 4 17 C4 18.32 4 19.64 4 21 C-4.81524249 22.60277136 -4.81524249 22.60277136 -9.5625 20.1875 C-12.09770935 17.91231212 -12.87976766 17.11362745 -13.23828125 13.79296875 C-13.43980708 6.71835156 -13.43980708 6.71835156 -11.125 2.9375 C-7.47680609 -0.38879444 -4.90253853 -0.49856324 0 0 Z " fill="#26B8BA" transform="translate(187,334)"/>
<path d="M0 0 C0 1.65 0 3.3 0 5 C-0.495 4.835 -0.99 4.67 -1.5 4.5 C-5.03429166 3.79314167 -8.41924178 3.44854853 -12 4 C-14.43119623 5.87015094 -15.64069173 7.28138345 -17 10 C-17.35438737 15.40440735 -17.38129657 18.53668852 -14 23 C-12.88873341 24.33901792 -12.88873341 24.33901792 -10.05859375 24.09765625 C-8.86363281 24.08605469 -7.66867187 24.07445312 -6.4375 24.0625 C-5.23996094 24.05347656 -4.04242188 24.04445313 -2.80859375 24.03515625 C-1.41833984 24.01775391 -1.41833984 24.01775391 0 24 C-0.33 25.65 -0.66 27.3 -1 29 C-4.89837649 30.29945883 -8.94622443 30.57018423 -13 30 C-18.10209922 27.30455136 -21.17381037 24.4785689 -23 19 C-23.51853818 14.0611364 -23.55199525 10.14645166 -21.375 5.625 C-15.2259547 -1.17131323 -8.72896052 -2.90965351 0 0 Z " fill="#26B6B8" transform="translate(310,326)"/>
<path d="M0 0 C0.77085937 -0.03738281 1.54171875 -0.07476562 2.3359375 -0.11328125 C4.625 0.3125 4.625 0.3125 6.8984375 1.78515625 C9.42967755 5.49038772 9.06359582 8.68852769 8.875 13.0625 C8.85695313 13.85527344 8.83890625 14.64804687 8.8203125 15.46484375 C8.77333082 17.41458348 8.70159044 19.36369878 8.625 21.3125 C7.69945312 21.29832031 6.77390625 21.28414063 5.8203125 21.26953125 C2.61192071 21.20523528 2.61192071 21.20523528 -0.5 22 C-3.375 22.3125 -3.375 22.3125 -5.75 21.25 C-7.375 19.3125 -7.375 19.3125 -7.9375 16.4375 C-7.17722117 12.21372873 -5.83070643 10.81237274 -2.375 8.3125 C1.4375 8 1.4375 8 4.625 8.3125 C3.965 7.3225 3.305 6.3325 2.625 5.3125 C0.41774927 4.94887182 0.41774927 4.94887182 -2 5.125 C-2.81726563 5.15207031 -3.63453125 5.17914063 -4.4765625 5.20703125 C-5.41628906 5.25923828 -5.41628906 5.25923828 -6.375 5.3125 C-6.375 3.9925 -6.375 2.6725 -6.375 1.3125 C-4.07513269 0.16256634 -2.56030912 0.0808071 0 0 Z " fill="#27B9BB" transform="translate(256.375,333.6875)"/>
<path d="M0 0 C1 3 1 3 -0.07421875 5.28515625 C-0.60660156 6.20167969 -1.13898438 7.11820313 -1.6875 8.0625 C-4.45092511 13.34514057 -6.05845789 18.36572281 -7.3125 24.1875 C-7.47129639 24.92299072 -7.63009277 25.65848145 -7.79370117 26.41625977 C-9.54338161 35.03206674 -10.14740794 43.47769856 -10.09765625 52.2590332 C-10.09621864 53.24766137 -10.09478104 54.23628954 -10.09329987 55.25487614 C-10.08954476 57.39683471 -10.08346617 59.53879023 -10.07530212 61.68073654 C-10.06223992 65.11924436 -10.0553235 68.55771841 -10.04992676 71.99624634 C-10.04168847 76.89951374 -10.03100794 81.8027663 -10.01831055 86.70602417 C-9.9865067 99.34306199 -9.97393503 111.98011297 -9.96875 124.6171875 C-9.96820114 125.85761999 -9.96765228 127.09805248 -9.96708679 128.37607384 C-9.9602789 156.59219713 -10.30881893 184.7920916 -11 213 C-11.33 213 -11.66 213 -12 213 C-12.09367002 189.67690176 -12.16408994 166.35383479 -12.20724869 143.03058624 C-12.2278256 132.19985139 -12.25585254 121.36923379 -12.30175781 110.53857422 C-12.34177527 101.0925089 -12.36746817 91.64652855 -12.37635398 82.2003808 C-12.38154359 77.20419443 -12.39363826 72.20825102 -12.42292023 67.21214294 C-12.45032555 62.49746734 -12.45839493 57.78313187 -12.45243073 53.06838417 C-12.45351984 51.34964962 -12.46132274 49.63090218 -12.4768219 47.91223717 C-12.60064206 33.45767176 -10.87836064 19.88385183 -3.75 7 C-3.38648437 6.3090625 -3.02296875 5.618125 -2.6484375 4.90625 C-1.78097623 3.26263918 -0.8929724 1.62989137 0 0 Z " fill="#03121F" transform="translate(104,126)"/>
<path d="M0 0 C0.33 1.65 0.66 3.3 1 5 C-0.27875 4.95875 -1.5575 4.9175 -2.875 4.875 C-5.01871492 4.75787127 -5.01871492 4.75787127 -7 5 C-9.15705515 6.7564331 -9.15705515 6.7564331 -9.265625 8.875 C-9.26046875 9.57625 -9.2553125 10.2775 -9.25 11 C-9.25515625 11.70125 -9.2603125 12.4025 -9.265625 13.125 C-9.15705515 15.2435669 -9.15705515 15.2435669 -7 17 C-4.31160615 17.26991906 -1.70858064 17.08737357 1 17 C1 18.32 1 19.64 1 21 C-2.06429776 22.53214888 -4.6165642 22.22938548 -8 22 C-10.78901573 20.76043745 -12.44350587 19.71549246 -14.3125 17.3125 C-15.35150926 13.81765067 -15.69164143 10.56777412 -15 7 C-11.05412956 0.17907154 -7.24170883 -0.11680176 0 0 Z " fill="#27B9BB" transform="translate(244,334)"/>
<path d="M0 0 C0 0.99 0 1.98 0 3 C-3.465 4.485 -3.465 4.485 -7 6 C-7.05399736 7.45792884 -7.09279177 8.91642712 -7.125 10.375 C-7.14820313 11.18710937 -7.17140625 11.99921875 -7.1953125 12.8359375 C-7.21370051 15.21342243 -7.21370051 15.21342243 -5 17 C-3.01178687 17.39764263 -1.01055661 17.73775349 1 18 C0.67 18.99 0.34 19.98 0 21 C-3.1875 21.75 -3.1875 21.75 -7 22 C-9.80189446 20.23358828 -11.51524911 18.96950178 -13 16 C-13.53118252 11.08003072 -13.75105553 7.22672403 -11.125 2.9375 C-7.44172611 -0.42077914 -4.89708562 -0.09068677 0 0 Z " fill="#26B4B7" transform="translate(209,334)"/>
<path d="M0 0 C1.32 0 2.64 0 4 0 C4.33 0.66 4.66 1.32 5 2 C5.99 1.34 6.98 0.68 8 0 C8.99 0 9.98 0 11 0 C11 1.32 11 2.64 11 4 C9.35 4.33 7.7 4.66 6 5 C5.67 10.61 5.34 16.22 5 22 C3.35 22 1.7 22 0 22 C0 14.74 0 7.48 0 0 Z " fill="#26B5B8" transform="translate(334,334)"/>
<path d="M0 0 C1.32 0 2.64 0 4 0 C4.33 10.56 4.66 21.12 5 32 C3.35 31.67 1.7 31.34 0 31 C0 20.77 0 10.54 0 0 Z " fill="#27BCBE" transform="translate(270,324)"/>
<path d="M0 0 C3 2.125 3 2.125 5 5 C4.8125 8.3125 4.8125 8.3125 4 11 C2.35 11 0.7 11 -1 11 C-1 10.67 -1 10.34 -1 10 C-3.64 9.67 -6.28 9.34 -9 9 C-8.67 7.68 -8.34 6.36 -8 5 C-9.65 5.66 -11.3 6.32 -13 7 C-9.67174891 0.9774504 -7.01775875 -0.84697088 0 0 Z " fill="#25AEB1" transform="translate(187,334)"/>
<path d="M0 0 C0.556875 0.268125 1.11375 0.53625 1.6875 0.8125 C1.0275 1.4725 0.3675 2.1325 -0.3125 2.8125 C1.3375 3.1425 2.9875 3.4725 4.6875 3.8125 C4.09946203 6.83669525 3.46071882 9.83008453 2.6875 12.8125 C-2.59551887 14.13325472 -2.59551887 14.13325472 -5.6875 12.75 C-7.3125 10.8125 -7.3125 10.8125 -7.875 7.9375 C-7.10337942 3.65071899 -4.83292498 -0.39185878 0 0 Z " fill="#26B5B7" transform="translate(256.3125,342.1875)"/>
<path d="M0 0 C0.99 0.103125 1.98 0.20625 3 0.3125 C5.71232939 4.38099409 5.30699887 6.47726784 5 11.3125 C3 13.3125 3 13.3125 0 13.5625 C-3 13.3125 -3 13.3125 -5 11.3125 C-5.265625 9.21875 -5.265625 9.21875 -5.25 6.8125 C-5.25515625 6.0184375 -5.2603125 5.224375 -5.265625 4.40625 C-4.81071098 0.82045712 -3.44188663 0.35852986 0 0 Z " fill="#0A2030" transform="translate(206,337.6875)"/>
<path d="M0 0 C1.65 0 3.3 0 5 0 C5 7.26 5 14.52 5 22 C3.35 22 1.7 22 0 22 C0 14.74 0 7.48 0 0 Z " fill="#25AFB1" transform="translate(220,334)"/>
<path d="M0 0 C-0.09539062 0.62648438 -0.19078125 1.25296875 -0.2890625 1.8984375 C-0.39992188 2.71570313 -0.51078125 3.53296875 -0.625 4.375 C-0.74101562 5.18710937 -0.85703125 5.99921875 -0.9765625 6.8359375 C-0.98429687 7.55007813 -0.99203125 8.26421875 -1 9 C-0.34 9.66 0.32 10.32 1 11 C1 11.99 1 12.98 1 14 C-1.875 13.6875 -1.875 13.6875 -5 13 C-7 10 -7 10 -6.875 6.5 C-6 3 -6 3 -4.0625 1.0625 C-2 0 -2 0 0 0 Z " fill="#26B3B6" transform="translate(320,342)"/>
<path d="M0 0 C1.58323688 -0.027193 3.16661062 -0.04648306 4.75 -0.0625 C6.07257813 -0.07990234 6.07257813 -0.07990234 7.421875 -0.09765625 C9.83102137 -0.00640071 11.7569138 0.11590071 14 1 C14.33 1.99 14.66 2.98 15 4 C11.41236665 5.19587778 9.96978321 4.68815865 6.375 3.6875 C5.39273437 3.42324219 4.41046875 3.15898438 3.3984375 2.88671875 C1 2 1 2 0 0 Z " fill="#213243" transform="translate(339,97)"/>
<path d="M0 0 C0.66 0.33 1.32 0.66 2 1 C-0.94278505 4.03474709 -3.97431256 6.93065792 -7.125 9.75 C-7.78757812 10.34296875 -8.45015625 10.9359375 -9.1328125 11.546875 C-11 13 -11 13 -14 14 C-14 12 -14 12 -12.4609375 10.44921875 C-11.77257812 9.86785156 -11.08421875 9.28648437 -10.375 8.6875 C-9.65054687 8.07132812 -8.92609375 7.45515625 -8.1796875 6.8203125 C-7.46039063 6.21960938 -6.74109375 5.61890625 -6 5 C-5.38382812 4.48179687 -4.76765625 3.96359375 -4.1328125 3.4296875 C-2.76024877 2.28041165 -1.3809017 1.1392439 0 0 Z " fill="#010F1A" transform="translate(390,380)"/>
<path d="M0 0 C1.4540625 0.0309375 1.4540625 0.0309375 2.9375 0.0625 C2.6075 1.7125 2.2775 3.3625 1.9375 5.0625 C0.2875 5.3925 -1.3625 5.7225 -3.0625 6.0625 C-3.44468767 4.40635343 -3.77645102 2.73792976 -4.0625 1.0625 C-3.0625 0.0625 -3.0625 0.0625 0 0 Z " fill="#0D2837" transform="translate(322.0625,345.9375)"/>
<path d="M0 0 C1.4540625 0.0309375 1.4540625 0.0309375 2.9375 0.0625 C2.6075 1.7125 2.2775 3.3625 1.9375 5.0625 C0.2875 5.3925 -1.3625 5.7225 -3.0625 6.0625 C-3.44468767 4.40635343 -3.77645102 2.73792976 -4.0625 1.0625 C-3.0625 0.0625 -3.0625 0.0625 0 0 Z " fill="#0C2735" transform="translate(258.0625,345.9375)"/>
<path d="M0 0 C1.98 0 3.96 0 6 0 C6.33 1.32 6.66 2.64 7 4 C4.03 4 1.06 4 -2 4 C-1.34 2.68 -0.68 1.36 0 0 Z " fill="#0C2333" transform="translate(354,338)"/>
<path d="M0 0 C1.41569064 -0.08167446 2.83276805 -0.13949698 4.25 -0.1875 C5.43335938 -0.23970703 5.43335938 -0.23970703 6.640625 -0.29296875 C9 0 9 0 13 3 C8.71 3 4.42 3 0 3 C0 2.01 0 1.02 0 0 Z " fill="#29BFC1" transform="translate(352,343)"/>
<path d="M0 0 C1.65 0 3.3 0 5 0 C5.66 1.32 6.32 2.64 7 4 C4.03 4 1.06 4 -2 4 C-1.34 2.68 -0.68 1.36 0 0 Z " fill="#0A1E2D" transform="translate(181,338)"/>
<path d="M0 0 C1.67542976 0.28604898 3.34385343 0.61781233 5 1 C4.67 2.32 4.34 3.64 4 5 C2.68 5 1.36 5 0 5 C-0.5625 3.0625 -0.5625 3.0625 -1 1 C-0.67 0.67 -0.34 0.34 0 0 Z " fill="#26B5B8" transform="translate(221,325)"/>
<path d="M0 0 C2.5654594 2.5654594 2.54046087 4.47686668 3 8 C2.34 8 1.68 8 1 8 C0.67 8.99 0.34 9.98 0 11 C0 7.37 0 3.74 0 0 Z " fill="#0E333D" transform="translate(144,333)"/>
<path d="M0 0 C2.64 1.32 5.28 2.64 8 4 C5.2780754 5.3609623 3.8168043 4.70366248 0.875 4.0625 C-0.03507812 3.86785156 -0.94515625 3.67320312 -1.8828125 3.47265625 C-2.58148438 3.31667969 -3.28015625 3.16070312 -4 3 C-2.68 2.67 -1.36 2.34 0 2 C0 1.34 0 0.68 0 0 Z " fill="#4DAC99" transform="translate(257,150)"/>
</svg>
